<svg xmlns="http://www.w3.org/2000/svg" viewBox="0 0 4110.24 1405.26"><defs><style>.a,.b{fill:#fff}.a{fill-rule:evenodd}</style></defs><path class="a" d="M3750.27 687.61c366.6 184.55 262.53 586-185.49 586s-622.25-190.18-651.68-337.27c-17.75 52.73 84.14 468.93 649.63 468.93 661.54-.01 723.01-568.39 187.54-717.66Z"/><path class="a" d="M3664.16 961.39c-53.68 107-224.13 176-315.18 31.22 116-6.58 132.28-58.84 136.57-75.81-53.18 7.93-183.63 3-219-5.06 22.16 248.62 330.57 306.61 397.61 49.65ZM3627.7 814.72c-95.28 40.51-193.41 77.44-378.13 54.56l-19.13-70.13c138.72 24.05 282.44 1.2 377.71-39.32ZM2987.64 402.61c-13.55 31.95 25.18 67.77 305.91 31.95s403.67-98.75 189.73-126.83c253.62 17.43 189.73 103-182 152.37-304.46 40.44-353.34-1.34-313.64-57.49ZM3121.23 595.26c-7.74 56.15 89.06 62.92 251.69 33.88s223.62-82.29 188.77-109.39c53.24 8.71 79.38 82.28-181 132.63s-275.9-17.38-259.46-57.12Z"/><path class="a" d="m3212.21 698.85-44.53-28.08c-94.88-199.42-291.4-440.48-348.5-513.09 2.9-22.27-17.42-106.49-17.42-106.49 132.62 67.81 373.65 568.28 410.45 647.66ZM3294.65 744.75s-31.81-26-43.38-36.16c-65.07-147.5-135.92-316.69-319.56-581.33 0-36.16-8.68-112.8-11.57-127.26 127.25 83.87 360.05 708.59 374.51 744.75ZM3368.4 749.08s-8.68-8.67-26-18.8c-94-273.31-147.49-407.8-266.06-607.36 7.23-46.28 5.78-83.88 4.33-118.58 102.64 112.79 183.62 323.93 287.73 744.74ZM3459.5 731.73s-14.46-23.14-30.37-36.15c-34.7-232.83-95.43-474.33-125.8-548.08 11.57-26 17.35-94 17.35-94 93.99 86.77 127.25 578.5 138.82 678.23ZM3552 686.9s-8.67-26-18.8-37.6c14.46-189.44 14.46-299.34-2.89-432.38 11.57-20.25 27.48-60.74 30.37-75.2 27.51 72.28 28.96 133.04-8.68 545.18ZM3656.32 911.74v-81.98l19.35-19.35h96.83v101.78h102.87v96.17l-18.79 18.79h-83.76v81.91l-18.16 18.15h-100.64v-64.05l21.65-21.66v63.71h77.87v-77.57l18.96-18.96h85.36v-78.03h-103.2v-98.62h-78.99v80.48l-17.83 18.14h-133.98l22.95-18.14 109.51-.77z"/><path class="b" d="M15.14 450.71a569.58 569.58 0 0 0 84.33 6.75c45.41 0 67-6.16 67-14.31 0-8.34-18-12.91-64.16-17.68-63.43-6.36-93-15.7-93-27.23 0-15.5 46.14-28.21 120.37-28.21 35.32 0 66.32 2.58 85.06 6l-15.13 12.52A452.5 452.5 0 0 0 128.3 383c-37.48 0-57.66 6-57.66 13.11 0 8.15 20.18 11.73 65.59 16.49 59.83 6.17 91.55 14.51 91.55 29 0 17.08-48.3 29-129.75 29-38.2 0-73.52-2.79-98-6.76ZM334.45 372.21l46.85 48.69c9.37 10.73 18.75 20.86 25.23 30.8h2.16c7.93-9.74 19.47-20.07 31-30.6l56.94-48.89H550l54 48.09a260.86 260.86 0 0 1 31 31.4h2.16c5.77-9.74 15.14-19.87 26.67-31.2l49.74-48.29h62.71l-112.42 96.18H606.2l-53.34-45.9c-12.26-10.93-22.35-20.47-31-31.79h-1.44c-8.65 11.52-19.46 21.65-31.72 32l-56.22 45.7h-57.66l-105.24-96.19ZM870 354.53c-23.78 0-39.64-5.17-39.64-11.33s16.58-11.13 41.09-11.13 40.36 5 40.36 11.13-15.81 11.33-41.09 11.33Zm-30.27 113.86v-96.18h63.43v96.18ZM999.75 450.71a569.34 569.34 0 0 0 84.33 6.75c45.41 0 67-6.16 67-14.31 0-8.34-18-12.91-64.15-17.68-63.43-6.36-93-15.7-93-27.23 0-15.5 46.13-28.21 120.37-28.21 35.32 0 66.32 2.58 85.06 6l-15.14 12.52a452.35 452.35 0 0 0-71.36-5.56c-37.48 0-57.66 6-57.66 13.11 0 8.15 20.18 11.73 65.59 16.49 59.83 6.17 91.54 14.51 91.54 29 0 17.08-48.29 29-129.74 29-38.21 0-73.53-2.79-98-6.76ZM1285.18 450.71a569.61 569.61 0 0 0 84.34 6.75c45.4 0 67-6.16 67-14.31 0-8.34-18-12.91-64.15-17.68-63.44-6.36-93-15.7-93-27.23 0-15.5 46.13-28.21 120.38-28.21 35.32 0 66.31 2.58 85 6l-15.14 12.52a452.19 452.19 0 0 0-71.35-5.56c-37.49 0-57.67 6-57.67 13.11 0 8.15 20.18 11.73 65.6 16.49 59.82 6.17 91.54 14.51 91.54 29 0 17.08-48.3 29-129.75 29-38.2 0-73.52-2.79-98-6.76ZM10 510.35h74.88l24.38 144.25h1.11c16.71-23.48 40.62-37.38 79.74-37.38 88.28 0 130.89 60.38 142.4 128.44 11.41 67.57-10.47 129.87-98.76 129.87-31.84 0-68.11-9.58-94.35-35.94h-1.12l5.1 30.19H70.74Zm194.65 315.34c49.18 0 55.37-46 49.63-80-5.59-33.07-26.69-78.6-75.31-78.6-48.06 0-59.6 44.09-53.77 78.6 5.91 34.95 29.72 80 79.45 80ZM385.48 635.91c27.11-11.5 65-18.69 96.86-18.69 87.72 0 129.31 31.15 141.62 104l5.34 31.63c4.21 24.92 7.92 43.61 11.56 61.82 3.72 18.69 7.74 35.94 12.66 55.11H587.6c-5-12.94-7.74-29.23-9.6-36.9h-1.11c-12.72 27.32-47.55 42.65-81.63 42.65-50.85 0-105-26.35-113-73.32-6.24-36.9 10.8-58.47 37.26-70.45s62.94-14.38 94.24-14.38h41.34c-6.71-39.78-29.66-53.19-73.8-53.19-31.85 0-61.91 10.54-84.31 26.83Zm120.28 192.66c22.91 0 39.33-8.63 48.79-22.05 10-13.89 10.31-31.63 7.06-50.8h-32.4c-33.53 0-82.45 4.79-76.05 42.66 3.56 21.08 25.78 30.19 52.6 30.19ZM909.77 842h-1.12c-18.3 24-47.41 33.54-82.61 33.54-88.29 0-131.23-62.3-142.64-129.87-11.49-68.06 10.7-128.44 99-128.44 37.44 0 65.56 11 91.88 34.51h1.12l-23.9-141.38h74.88l60.74 359.43h-72.65Zm-71.47-16.3c49.73 0 58.31-45.05 52.41-80-5.84-34.51-32.29-78.6-80.33-78.6-48.62 0-54.34 45.53-48.75 78.6 5.74 33.98 27.49 79.99 76.67 79.99ZM1021.39 623h69.85l5.83 34.51h1.12c18.36-30.2 50.74-40.26 78.68-40.26 40.23 0 70.92 12.94 92.31 43.61 12.29-29.71 47.38-43.61 82.59-43.61 71 0 98.12 41.69 107.43 96.81l26.32 155.75h-74.88l-24.86-147.13c-3.88-23-9.38-55.59-52.41-55.59-49.73 0-47.29 50.8-41.87 82.91l20.25 119.81h-74.88L1212 722.65c-3.88-23-9.38-55.59-52.41-55.59-49.73 0-47.28 50.8-41.87 82.91L1138 869.78h-74.88ZM1502.94 516.58h74.87l10.37 61.34h-74.87Zm18 106.39h74.87l41.71 246.81h-74.88ZM1674.58 623h71l5.67 33.55h1.11c18.7-28.28 48.69-39.3 87.8-39.3 68.17 0 104.75 41.22 114.14 96.81l26.32 155.75h-74.87L1883.44 738c-5.1-30.19-12.56-70.93-60.6-70.93-54.2 0-57.44 50.32-52.09 82l20.41 120.77h-74.88ZM2048.5 669.94h-55.32l-7.93-47h55.31l-8.34-49.36 71.37-20.58 11.84 70h66.49l7.92 47h-66.49l19.44 115c3.57 21.09 13.59 40.74 42.09 40.74 13.41 0 25.85-2.39 32.95-6.71l10.83 50.8c-15 3.84-32 5.75-54.35 5.75-58.68 0-96.33-31.15-104.6-80ZM2364.21 617.22c85.49 0 159.22 49.36 173 130.84 12 70.92-33.78 127.47-129.33 127.47-95 0-159.86-56.55-171.85-127.47-13.78-81.48 43.25-130.84 128.18-130.84Zm35.22 208.47c57.56 0 65.19-44.09 58.22-85.31-6.39-37.85-35.85-73.32-85-73.32-48.62 0-65.92 36.43-59.69 73.32 6.86 40.74 29.48 85.31 86.47 85.31ZM2574.71 623h71l5.67 33.55h1.11c18.68-28.28 48.67-39.3 87.8-39.3 68.16 0 104.75 41.22 114.14 96.81l26.32 155.75h-74.87L2783.58 738c-5.09-30.19-12.55-70.93-60.61-70.93-54.2 0-57.43 50.32-52.07 82l20.4 120.77h-74.88ZM69.61 912.89h3145.87v11.57H69.61z"/></svg>